<?xml version="1.0" encoding="utf-8"?>
<!-- Generator: Adobe Illustrator 24.1.1, SVG Export Plug-In . SVG Version: 6.00 Build 0)  -->
<svg version="1.1" id="Layer_1" xmlns="http://www.w3.org/2000/svg" xmlns:xlink="http://www.w3.org/1999/xlink" x="0px" y="0px"
	 viewBox="0 0 595.28 841.89" style="enable-background:new 0 0 595.28 841.89;" xml:space="preserve">
<style type="text/css">
	.st0{fill:none;stroke:#000000;stroke-width:6;stroke-miterlimit:10;}
</style>
<g>
	<path d="M254.04,368.45c0-0.08,0-0.17,0-0.25c0.39-0.33,0.8-0.63,1.16-0.98c3.99-3.97,7.98-7.93,11.96-11.92
		c1.9-1.91,3.77-3.85,5.96-6.08c8.3,8.34,16.44,16.51,24.68,24.78c8.07-8.09,16.19-16.23,24.32-24.38c0.19,0.13,0.3,0.19,0.39,0.27
		c5.48,5.47,10.95,10.94,16.45,16.4c0.7,0.7,1.53,1.28,2.29,1.91c0,0.08,0,0.17,0,0.25c-0.61,0.49-1.28,0.92-1.84,1.47
		c-21.95,21.85-43.89,43.71-65.83,65.57c-0.25,0.25-0.54,0.48-0.87,0.78c-5.9-5.92-11.73-11.76-17.56-17.58
		c-0.31-0.31-0.73-0.52-1.1-0.77c0-0.25,0-0.51,0-0.76c0.28-0.17,0.6-0.28,0.83-0.51c7.67-7.63,15.34-15.26,23-22.9
		c0.26-0.26,0.49-0.56,0.78-0.9c-0.36-0.38-0.67-0.72-0.99-1.05c-5.45-5.43-10.89-10.87-16.35-16.28
		C258.91,373.13,256.46,370.8,254.04,368.45z"/>
	<path d="M341.24,417.65c-1.54,1.44-3.12,2.84-4.61,4.32c-4.69,4.64-9.34,9.31-14.02,13.97c-0.09,0.09-0.2,0.14-0.28,0.2
		c-6.04-6.05-12.06-12.08-18.23-18.25c6.23-6.09,12.5-12.22,18.9-18.47c1.99,2,3.85,3.89,5.73,5.77c3.74,3.74,7.48,7.47,11.23,11.2
		c0.38,0.38,0.85,0.68,1.28,1.02C341.24,417.48,341.24,417.57,341.24,417.65z"/>
</g>
<path class="st0"  d="M322.98,447.42h-50.69c-16.13,0-29.33-13.2-29.33-29.33v-53.8c0-14.42,11.8-26.22,26.22-26.22h53.8
	c16.13,0,29.33,13.2,29.33,29.33v50.69C352.32,434.22,339.12,447.42,322.98,447.42z"/>
</svg>
