<?xml version="1.0" encoding="UTF-8" standalone="no"?>
<svg
   xml:space="preserve"
   style="enable-background:new 0 0 595.28 841.89"
   viewBox="0 0 595.28 841.89"
   version="1.1"
   id="svg2"
   sodipodi:docname="new-logo-gara.svg"
   inkscape:version="1.3.2 (091e20e, 2023-11-25, custom)"
   xmlns:inkscape="http://www.inkscape.org/namespaces/inkscape"
   xmlns:sodipodi="http://sodipodi.sourceforge.net/DTD/sodipodi-0.dtd"
   xmlns="http://www.w3.org/2000/svg"
   xmlns:svg="http://www.w3.org/2000/svg"><defs
     id="defs2" /><sodipodi:namedview
     id="namedview2"
     pagecolor="#ffffff"
     bordercolor="#000000"
     borderopacity="0.25"
     inkscape:showpageshadow="2"
     inkscape:pageopacity="0.0"
     inkscape:pagecheckerboard="0"
     inkscape:deskcolor="#d1d1d1"
     inkscape:zoom="1.3932936"
     inkscape:cx="297.85538"
     inkscape:cy="420.94501"
     inkscape:window-width="2560"
     inkscape:window-height="1369"
     inkscape:window-x="-8"
     inkscape:window-y="-8"
     inkscape:window-maximized="1"
     inkscape:current-layer="svg2" /><path
     d="m 122.40547,369.24555 v -0.92869 c 1.61255,-1.22583 3.30777,-2.34022 4.79628,-3.64034 16.49756,-14.74723 32.99514,-29.45731 49.45138,-44.27881 7.85597,-7.095 15.58794,-14.30146 24.643,-22.58516 34.31827,30.98029 67.97499,61.3291 102.04515,92.04937 33.36729,-30.05162 66.9413,-60.28899 100.55667,-90.5635 0.78559,0.48289 1.24041,0.70578 1.61254,1.00295 22.65835,20.31922 45.27531,40.63842 68.01632,60.9205 2.89431,2.60025 6.32615,4.75477 9.46854,7.09499 v 0.92869 c -2.52219,1.82019 -5.29245,3.4175 -7.60791,5.46055 -90.75734,81.16542 -181.47335,162.36798 -272.18933,243.57055 -1.0337,0.92865 -2.23277,1.78302 -3.59721,2.89743 -24.39493,-21.99082 -48.50041,-43.68446 -72.60589,-65.30381 -1.28177,-1.15154 -3.01835,-1.93161 -4.5482,-2.86029 v -2.82314 c 1.15772,-0.63148 2.48082,-1.04011 3.43181,-1.89449 31.71339,-28.34287 63.42679,-56.68576 95.09882,-85.06581 1.07505,-0.96581 2.02602,-2.08019 3.22509,-3.3432 -1.48849,-1.41158 -2.77027,-2.67455 -4.09337,-3.90038 -22.53429,-20.17064 -45.02722,-40.37842 -67.60285,-60.47473 -9.96472,-8.87807 -20.0948,-17.53323 -30.10084,-26.26268 z M 482.954,552.00703 c -6.36748,5.34912 -12.90035,10.54964 -19.06111,16.04734 -19.39187,17.23604 -38.61837,34.58353 -57.96893,51.89386 -0.37211,0.33432 -0.82694,0.52006 -1.15772,0.74294 -24.97378,-22.47371 -49.86487,-44.87316 -75.37615,-67.79263 25.75937,-22.62231 51.68414,-45.3932 78.14642,-68.60985 8.22811,7.42935 15.91871,14.45005 23.69201,21.43361 15.46389,13.89285 30.92778,27.74855 46.43303,41.60424 1.57121,1.41158 3.51453,2.52598 5.29245,3.78897 z"
     id="path1"
     style="stroke-width:3.91908;fill:#000000" /><path
     d="M 407.45381,662.59258 H 197.8643 c -66.69321,0 -121.271657,-49.03357 -121.271657,-108.9511 V 353.79254 c 0,-53.56546 48.789807,-97.39849 108.412627,-97.39849 h 222.44854 c 66.69321,0 121.27167,49.03357 121.27167,108.95108 v 188.29635 c 0.0412,59.91753 -54.53711,108.9511 -121.27167,108.9511 z"
     style="fill:none;stroke:#000000;stroke-width:23.5146;stroke-miterlimit:10"
     id="path2" /></svg>
